<svg width="64" height="64" viewBox="0 0 64 64" fill="none" xmlns="http://www.w3.org/2000/svg">
<path d="M47.7712 34.0249C47.7126 28.5298 52.2778 25.867 52.4842 25.7483C49.9231 22.0125 45.9459 21.464 44.5379 21.4053C41.1689 21.0664 37.9515 23.396 36.2366 23.396C34.5053 23.396 31.8906 21.464 29.071 21.514C25.4055 21.564 22.0326 23.6394 20.1416 26.9202C16.3262 33.5619 19.1601 43.4357 22.8805 48.8105C24.708 51.4398 26.8687 54.3828 29.7188 54.2754C32.4632 54.168 33.5041 52.5135 36.8188 52.5135C40.1171 52.5135 41.0652 54.2754 43.9452 54.2217C46.8837 54.168 48.7758 51.5471 50.5828 48.9142C52.671 45.8675 53.5358 42.913 53.5752 42.7663C53.4922 42.7305 47.8222 40.5742 47.7712 34.0249ZM39.9546 15.6517C41.4462 13.8423 42.4533 11.3283 42.1769 8.81433C39.9765 8.90376 37.3105 10.2809 35.7279 12.1124C34.316 13.7386 33.0768 16.3339 33.4023 18.7735C35.8504 18.963 38.3308 17.6217 39.9546 15.6517Z" fill="currentColor"/>
</svg>
